<svg width="93" height="35" viewBox="0 0 93 35" fill="none" xmlns="http://www.w3.org/2000/svg">
<path fill-rule="evenodd" clip-rule="evenodd" d="M19.0518 9.93945C19.8942 9.93945 20.4838 10.6134 20.3154 11.3715C18.8009 18.0569 19.033 25.0195 20.9893 31.5891C21.242 32.3473 20.5681 33.1055 19.8099 33.1055H-0.576158C-1.41856 33.1055 -2.09248 32.2631 -1.83976 31.5049C0.182002 24.3445 0.182002 19.3743 -1.16584 11.3715C-1.25008 10.5291 -0.744638 10.0237 0.0977621 10.0237H0.182002C4.30976 10.4449 6.9212 10.6134 9.61688 10.6134C12.1441 10.6134 14.8398 10.4449 18.8833 10.0237H19.0518V9.93945ZM6.41576 15.6678C6.41576 16.1732 5.99456 16.5944 5.40488 16.5944C5.2868 16.595 5.16991 16.5708 5.0618 16.5233C4.95368 16.4758 4.85677 16.4061 4.77733 16.3187C4.6979 16.2313 4.63772 16.1282 4.60071 16.0161C4.5637 15.9039 4.55067 15.7853 4.56248 15.6678C4.55067 15.5503 4.5637 15.4316 4.60071 15.3195C4.63772 15.2073 4.6979 15.1042 4.77733 15.0169C4.85677 14.9295 4.95368 14.8598 5.0618 14.8123C5.16991 14.7648 5.2868 14.7405 5.40488 14.7411C5.99456 14.7411 6.41576 15.1623 6.41576 15.5835V15.6678ZM13.6604 16.5944C14.1658 16.5944 14.6713 16.1732 14.6713 15.6678C14.6713 15.1623 14.1658 14.7411 13.6604 14.7411C13.437 14.7411 13.2227 14.8299 13.0647 14.9879C12.9068 15.1458 12.818 15.3601 12.818 15.5835C12.7927 15.7073 12.7956 15.8353 12.8264 15.9578C12.8573 16.0804 12.9153 16.1944 12.9962 16.2915C13.0771 16.3886 13.1788 16.4662 13.2938 16.5186C13.4088 16.5711 13.5341 16.597 13.6604 16.5944ZM4.30976 18.8689C4.30976 20.5537 5.57336 23.9233 9.53264 23.9233C13.5762 23.9233 14.8398 20.5537 14.8398 18.8689C14.8398 18.5319 14.5028 18.195 14.1658 18.195C13.8289 18.195 13.5762 18.5319 13.5762 18.8689C13.5762 20.1325 12.5653 22.7439 9.53264 22.7439C9.01672 22.7552 8.50375 22.6632 8.02385 22.4735C7.54394 22.2838 7.10676 22.0001 6.73796 21.6392C6.36915 21.2782 6.07616 20.8472 5.87618 20.3715C5.67619 19.8958 5.57324 19.3849 5.57336 18.8689C5.57336 18.5319 5.32064 18.195 4.89944 18.195C4.56248 18.195 4.30976 18.5319 4.30976 18.8689Z" fill="#8A8A8A"/>
<path d="M12.228 6.4859C12.581 6.42364 12.9173 6.28938 13.2161 6.0915C13.515 5.89362 13.7699 5.63634 13.965 5.33568C14.1601 5.03503 14.2912 4.69743 14.3501 4.34391C14.4091 3.99039 14.3947 3.62851 14.3078 3.28081C14.2209 2.9331 14.0633 2.60701 13.8449 2.32284C13.6265 2.03866 13.3519 1.80248 13.0383 1.62901C12.7247 1.45554 12.3787 1.34848 12.0219 1.3145C11.6651 1.28052 11.3051 1.32035 10.9644 1.4315C10.6114 1.49377 10.2751 1.62802 9.97625 1.82591C9.67742 2.02379 9.42253 2.28107 9.22743 2.58172C9.03234 2.88238 8.90122 3.21997 8.84224 3.5735C8.78326 3.92702 8.79769 4.28889 8.88461 4.6366C8.97154 4.98431 9.12911 5.3104 9.34751 5.59457C9.56591 5.87875 9.84047 6.11492 10.1541 6.2884C10.4677 6.46187 10.8137 6.56893 11.1705 6.60291C11.5273 6.63689 11.8873 6.59706 12.228 6.4859Z" fill="#8A8A8A"/>
<path d="M17.9566 9.18237V6.48669C18.0408 5.64429 17.1142 5.05461 16.2718 5.56005L11.3858 8.76117C11.0489 8.92965 10.7962 9.26661 10.7119 9.60357C12.7337 9.60357 14.9239 9.43509 17.9566 9.18237Z" fill="#8A8A8A"/>
<path d="M1.36113 9.18251C4.64649 9.51947 7.08945 9.68795 9.53241 9.68795L8.35305 5.81291C8.23783 5.4803 7.99707 5.20597 7.68223 5.04855C7.36739 4.89113 7.00347 4.86312 6.66825 4.97051L1.86657 6.23411C1.10841 6.40259 0.68721 7.24499 1.02417 7.91891L1.27689 9.09827L1.36113 9.18251Z" fill="#8A8A8A"/>
<path d="M76.756 21.5659C76.2375 20.0992 75.2804 18.8275 74.0146 17.9233C72.7487 17.0191 71.2354 16.5262 69.6798 16.5115C69.0913 16.5115 68.5109 16.6485 67.9845 16.9117C67.4582 17.1748 67.0003 17.557 66.6472 18.0278C65.889 18.8702 65.8048 20.3023 65.9733 21.3974V21.7343L66.3102 21.4816C66.5629 21.2289 67.1526 20.8919 67.8265 20.7235H69.0059C69.9325 20.8077 70.7749 21.2289 71.4489 21.9028C72.2913 22.7452 72.6282 23.8403 72.6282 25.1039C72.6282 26.4518 72.207 27.4627 71.4489 28.3051C70.6065 29.1475 69.5956 29.4844 68.332 29.4844C67.7735 29.4988 67.2178 29.4019 66.6972 29.1994C66.1765 28.9969 65.7014 28.6929 65.2993 28.3051C64.0357 27.0415 64.2042 24.5985 64.2042 24.5985V10.025L64.0357 9.85649L63.5303 9.77225C63.1091 9.60377 62.6037 9.51953 62.014 9.51953C61.2558 9.51953 60.6661 9.68801 60.2449 10.025C59.8237 10.2777 59.6553 10.7831 59.6553 11.4571V24.3458C59.6553 25.6936 59.8237 26.873 60.0765 27.8839C60.3292 28.8947 60.7504 29.7371 61.2558 30.4111C62.0982 31.4219 63.0249 32.1801 64.2885 32.7698C66.7546 33.8179 69.5292 33.8782 72.0385 32.9383C73.0748 32.5737 74.0227 31.9953 74.8209 31.2407C75.6191 30.486 76.2497 29.5719 76.6717 28.5578C77.0929 27.5469 77.2614 26.3675 77.2614 25.1039C77.2614 23.7561 77.0929 22.5767 76.6717 21.5659H76.756ZM49.378 9.77225L47.8617 9.51953C47.0193 9.51953 46.5138 9.68801 46.0084 10.025C45.6714 10.2777 45.4187 10.7831 45.4187 11.4571V33.1067H49.9677V10.025L49.378 9.85649V9.77225ZM54.9378 14.5739C55.2821 14.5805 55.6241 14.5166 55.9428 14.3862C56.2614 14.2559 56.5501 14.0617 56.7911 13.8158C57.2965 13.3946 57.5493 12.8049 57.5493 12.131C57.5493 11.4607 57.283 10.8179 56.8091 10.344C56.3351 9.87003 55.6923 9.60377 55.0221 9.60377C54.2639 9.60377 53.6742 9.77225 53.1688 10.2777C52.7234 10.7578 52.4818 11.392 52.4949 12.0467C52.4949 12.8049 52.6633 13.3946 53.1688 13.8158C53.6354 14.2919 54.2712 14.5644 54.9378 14.5739ZM55.1063 17.0169C54.3481 17.0169 53.7585 17.1854 53.3373 17.5223C52.9161 17.7751 52.7476 18.2805 52.7476 19.0387V33.1067H57.2965V17.4381L56.6226 17.2696C56.2014 17.1011 55.696 17.0169 55.1063 17.0169ZM83.2425 9.77225C82.8213 9.60377 82.3158 9.51953 81.7261 9.51953C80.968 9.51953 80.3783 9.68801 79.9571 10.025C79.5359 10.2777 79.3674 10.7831 79.3674 11.4571V33.1067H83.9164V10.025L83.2425 9.85649V9.77225ZM88.8023 14.5739C89.4689 14.5644 90.1047 14.2919 90.5713 13.8158C91.0768 13.3946 91.3295 12.8049 91.3295 12.131C91.3295 11.4607 91.0632 10.8179 90.5893 10.344C90.1154 9.87003 89.4726 9.60377 88.8023 9.60377C88.0441 9.60377 87.4545 9.77225 86.949 10.2777C86.5037 10.7578 86.2621 11.392 86.2751 12.0467C86.2751 12.8049 86.5278 13.3946 86.949 13.8158C87.19 14.0617 87.4787 14.2559 87.7974 14.3862C88.1161 14.5166 88.458 14.5805 88.8023 14.5739ZM88.8865 17.0169C88.1284 17.0169 87.5387 17.1854 87.1175 17.5223C86.6963 17.7751 86.5278 18.2805 86.5278 19.0387V33.1067H91.0768V17.4381L90.4029 17.2696C89.9817 17.1011 89.4762 17.0169 88.8865 17.0169ZM42.723 21.5659C42.2046 20.0992 41.2475 18.8275 39.9816 17.9233C38.7158 17.0191 37.2024 16.5262 35.6469 16.5115C35.0726 16.5243 34.5089 16.6675 33.9981 16.9302C33.4873 17.1929 33.0429 17.5682 32.6985 18.0278C31.8561 18.8702 31.8561 20.3023 32.0245 21.3974V21.7343L32.3615 21.4816C32.6142 21.2289 33.2039 20.8919 33.8778 20.7235H35.0572C35.9838 20.8077 36.742 21.2289 37.5001 21.9028C38.2583 22.7452 38.6795 23.8403 38.6795 25.1039C38.6795 26.4518 38.2583 27.4627 37.4159 28.3051C36.5735 29.1475 35.6469 29.4002 34.3833 29.4002C33.8248 29.4145 33.2691 29.3176 32.7485 29.1152C32.2278 28.9127 31.7526 28.6087 31.3506 28.2208C30.087 26.9572 30.1713 24.5143 30.1713 24.5143V10.025L30.087 9.85649L29.5816 9.77225C29.1604 9.60377 28.6549 9.51953 28.0653 9.51953C27.3071 9.51953 26.7174 9.68801 26.2962 10.025C25.875 10.2777 25.7065 10.7831 25.7065 11.4571V24.3458C25.7065 25.6936 25.7908 26.873 26.1277 27.8839C26.3805 28.8947 26.8017 29.7371 27.2229 30.4111C28.0653 31.4219 29.0761 32.1801 30.3397 32.7698C32.7813 33.7957 35.5213 33.8559 38.0056 32.9383C39.0418 32.5737 39.9898 31.9953 40.788 31.2407C41.5862 30.486 42.2168 29.5719 42.6388 28.5578C43.1442 27.5469 43.3127 26.3675 43.3127 25.1039C43.3127 23.7561 43.1442 22.5767 42.723 21.5659Z" fill="#8A8A8A"/>
</svg>
