<svg width="108" height="54" viewBox="0 0 108 54" fill="none" xmlns="http://www.w3.org/2000/svg">
<path d="M0.631422 0.185499C0.586062 0.306459 0.570942 0.639101 0.601182 0.92638C0.646542 1.3951 0.676782 1.42534 1.32694 1.4707C1.68982 1.50094 2.08294 1.59166 2.18878 1.68238C2.47606 1.90918 2.47606 23.4703 2.18878 23.6971C2.08294 23.7878 1.68982 23.8785 1.32694 23.9088C0.661662 23.9541 0.646542 23.9693 0.601182 24.5438C0.570942 24.8613 0.616302 25.1789 0.707022 25.2393C0.797742 25.2847 2.11318 25.3149 3.62518 25.2847C6.67942 25.2242 6.99694 25.1335 7.29934 24.2414C7.37494 23.9995 7.45054 23.7878 7.46566 23.7576C7.48078 23.7273 7.85878 23.939 8.29726 24.2263C9.5371 24.9974 10.3536 25.2696 11.4422 25.2696C12.2436 25.2696 12.6065 25.1637 13.5137 24.7253C16.1445 23.4249 17.46 20.5068 17.0517 16.878C16.704 13.7481 15.4641 11.465 13.6497 10.6334C12.1831 9.9379 9.82438 10.2101 8.29726 11.2382L7.54126 11.7523L7.4959 6.65686C7.45054 1.0927 7.43542 0.971741 6.5131 0.35182C6.15022 0.09478 5.74198 0.0645409 3.39838 0.0191803C1.1455 -0.0261803 0.707022 0.00406075 0.631422 0.185499ZM10.1419 12.6746C11.5481 13.2189 12.2738 15.9859 11.9109 19.4181C11.6237 22.1397 10.9886 23.2737 9.74878 23.2737C8.96254 23.2737 8.34262 22.8806 7.8739 22.1095C7.54126 21.5501 7.52614 21.4291 7.52614 17.6642C7.52614 13.854 7.52614 13.7935 7.8739 13.5062C8.4787 12.9619 9.05326 12.6595 9.67318 12.5537C9.73366 12.5537 9.94534 12.599 10.1419 12.6746Z" fill="#8A8A8A"/>
<path d="M75.1126 6.12711C74.78 6.82263 74.2962 7.44255 73.525 8.21367C72.3003 9.40815 71.3024 10.0281 70.3196 10.1944L69.6694 10.3002V10.9655V11.6308H70.3952C70.7883 11.6308 71.1814 11.6913 71.2873 11.7517C71.4082 11.8273 71.4687 13.2637 71.5141 16.9984C71.5594 22.0485 71.5594 22.1543 71.9223 22.9405C72.3608 23.9082 73.2226 24.6793 74.2357 25.0271C75.1731 25.3295 76.9422 25.3295 77.8191 25.0271C79.1799 24.5281 82.0678 22.0636 81.8713 21.5495C81.705 21.111 81.3421 21.1261 80.3593 21.61C78.6961 22.4265 77.6982 22.2148 77.048 20.8842C76.7154 20.1887 76.7002 20.0526 76.7002 15.94V11.7064L78.4844 11.661L80.2534 11.6157V10.9504V10.2851L78.4844 10.2397L76.7002 10.1944L76.6549 7.65423L76.6246 5.12919H76.0954C75.6116 5.12919 75.5511 5.18967 75.1126 6.12711Z" fill="#8A8A8A"/>
<path d="M24.5814 10.2846C22.0261 10.6626 19.8639 12.2653 18.7451 14.624C18.1856 15.7732 18.1856 15.8034 18.2007 17.6783C18.2159 19.8102 18.488 20.8686 19.3801 22.2748C20.5292 24.0589 22.7216 25.1324 25.5944 25.2988C28.3463 25.45 30.3572 24.5125 31.9751 22.3201C32.6403 21.4129 32.6403 21.3978 32.3379 21.1105C32.0355 20.8081 32.0355 20.8081 31.1586 21.2012C28.7243 22.2748 26.1841 22.3201 24.8082 21.3222C24.2185 20.8837 23.4625 19.7044 23.3718 19.0391L23.3264 18.6611L25.8212 18.5704C28.1497 18.4948 28.3765 18.4645 29.2686 18.0563C30.8411 17.3456 31.5668 16.257 31.5668 14.5938C31.5517 12.3712 29.7978 10.6626 27.1064 10.2695C25.9119 10.1032 25.7759 10.1032 24.5814 10.2846ZM26.6528 11.9932C27.0913 12.4316 27.2425 13.1423 27.1518 14.4124C27.0459 16.136 26.0027 17.134 24.0824 17.3305L23.2508 17.4212V16.4233C23.2508 14.4426 23.7195 13.1272 24.7477 12.1897C25.4886 11.5093 26.1085 11.4488 26.6528 11.9932Z" fill="#8A8A8A"/>
<path d="M50.4369 10.1949C50.3613 10.2705 50.3159 10.6182 50.3159 10.9811V11.6313H50.9661C51.3138 11.6313 51.6767 11.6917 51.7826 11.7522C51.9035 11.8278 51.9791 13.2642 52.0245 16.9233C52.085 22.4118 52.1152 22.684 52.9317 23.7575C53.8238 24.9217 55.5474 25.4661 57.5433 25.209C58.4807 25.0881 60.0381 24.3925 61.0814 23.6214L61.8374 23.0771L62.1246 23.44C62.2758 23.6365 62.4119 23.8482 62.4119 23.9087C62.4119 24.1053 63.8483 24.9369 64.438 25.1032C65.451 25.3753 67.1142 25.3149 67.9005 24.9671C68.7321 24.6042 69.8207 23.6365 70.1987 22.8957C70.4709 22.3967 70.4709 22.3513 70.2441 22.1094C70.0173 21.8977 69.9114 21.8826 69.3671 22.0489C68.2331 22.3816 67.1596 21.7163 66.7967 20.4311C66.7211 20.1136 66.6455 18.1631 66.6455 15.8951C66.6455 10.1344 66.7514 10.2705 62.4422 10.2705H59.6752L59.7206 10.9055C59.7659 11.5557 59.7659 11.5557 60.4463 11.6313C60.8243 11.6766 61.2174 11.7673 61.3233 11.8278C61.4594 11.9185 61.5047 13.0979 61.5047 16.8325V21.7012L61.0058 22.185C60.2195 22.941 59.025 23.1829 58.1934 22.7445C57.3467 22.3211 57.2711 21.807 57.2711 16.6662C57.2711 10.1344 57.3618 10.2856 53.1282 10.1646C51.707 10.1193 50.4974 10.1344 50.4369 10.1949Z" fill="#8A8A8A"/>
<path d="M37.6756 10.573C35.8461 11.0417 34.3794 11.9338 33.9107 12.8561C33.6234 13.4004 33.6234 14.7007 33.9107 15.2451C34.2282 15.865 35.0145 16.1825 36.2694 16.1825C37.9931 16.1976 38.5072 15.6684 38.6735 13.7179C38.7793 12.5839 38.8247 12.4479 39.2632 12.0547C39.6563 11.6919 39.868 11.6314 40.5786 11.6314C42.1965 11.6314 42.4535 12.0547 42.4535 14.6856V16.5605L40.6845 16.7419C36.7533 17.1502 34.1677 18.2539 33.3815 19.8718C33.0942 20.4615 33.0489 20.7487 33.1093 21.5803C33.2605 23.6064 34.3492 24.6951 36.6323 25.1033C38.5828 25.4359 39.8377 25.1184 41.9848 23.7274L42.9373 23.1075L43.527 23.7727C44.4493 24.8311 45.2658 25.1487 47.0651 25.1638C48.3352 25.1638 48.6678 25.1184 49.1819 24.8311C49.8321 24.4834 50.5881 23.803 51.1929 23.0016C51.5406 22.548 51.5557 22.4724 51.3592 22.1247C51.208 21.8374 51.087 21.7618 50.8451 21.8525C50.6788 21.8979 50.2403 21.9886 49.8623 22.0188C49.318 22.0793 49.0912 22.0188 48.7585 21.7618C47.9118 21.0965 47.8362 20.7487 47.7455 17.3014C47.6548 13.7028 47.5187 13.2039 46.3847 12.1757C44.5249 10.4974 40.6693 9.78673 37.6756 10.573ZM42.4535 19.3728C42.4535 20.1439 42.4989 21.036 42.5442 21.3384C42.6349 21.8676 42.6198 21.913 41.9243 22.3515C41.0625 22.8958 40.2762 23.047 39.4446 22.8202C38.7037 22.6236 38.356 22.17 38.2653 21.2477C38.0687 19.5694 39.7924 18.0271 41.8941 17.9969L42.4535 17.9818V19.3728Z" fill="#8A8A8A"/>
<path d="M81.1908 10.9047L81.2361 11.5549L81.9316 11.6002L82.612 11.6456L85.8628 17.7238C87.647 21.0654 89.2346 24.044 89.3858 24.3464L89.6731 24.9058L88.9624 25.9642C88.1913 27.1285 87.6168 27.567 86.6642 27.7333C85.6814 27.8845 85.3639 27.5216 85.258 26.1306C85.1068 24.2406 84.3206 23.3182 82.9296 23.3787C81.9619 23.4241 81.4629 23.7718 81.1605 24.6034C80.722 25.8735 81.4629 27.6728 82.7935 28.5649C83.7612 29.1999 84.502 29.3814 86.1501 29.3965C87.4202 29.3965 87.6924 29.3511 88.4484 28.9731C88.9624 28.7161 89.6277 28.202 90.1116 27.6728C90.9885 26.7354 91.2607 26.2213 95.8723 16.6957C97.1121 14.1102 98.2008 11.9329 98.2764 11.827C98.352 11.7212 98.6997 11.6305 99.0475 11.6002C99.6825 11.5549 99.6825 11.5549 99.6825 10.9501V10.3453L96.4771 10.2999L93.2565 10.2697V10.9501V11.6305H94.6929C95.4792 11.6305 96.1293 11.6607 96.1293 11.7061C96.1293 11.9178 92.6517 19.7197 92.5459 19.7499C92.4098 19.7953 88.5693 12.069 88.5693 11.7666C88.5693 11.691 89.038 11.6305 89.6126 11.6305H90.6559L90.7164 11.1164C90.7466 10.8291 90.7466 10.5267 90.7164 10.436C90.671 10.315 89.2497 10.2697 85.9082 10.2697H81.1454L81.1908 10.9047Z" fill="#8A8A8A"/>
<path d="M100.923 18.0872C100.862 18.1325 100.817 18.7827 100.817 19.5084V20.8239L99.0931 22.1544C98.1405 22.8953 97.3694 23.5152 97.3845 23.5304C97.4147 23.5455 98.2463 23.4245 99.2291 23.2733C101.376 22.9256 101.936 22.9104 102.147 23.1675C102.268 23.3036 102.223 23.9688 101.966 25.5413C101.769 26.7509 101.618 27.7488 101.648 27.7791C101.663 27.7942 102.283 27.0382 103.024 26.0705L104.37 24.3468L105.761 24.3317C106.562 24.3317 107.197 24.2712 107.243 24.1654C107.303 24.0898 106.986 23.4699 106.547 22.8046L105.761 21.595L106.094 20.4912C106.26 19.8713 106.411 19.2212 106.411 19.0397C106.411 18.6466 106.245 18.6617 104.582 19.1153L103.584 19.3875L102.48 18.692C101.376 17.9964 101.119 17.8906 100.923 18.0872Z" fill="#8A8A8A"/>
<path d="M26.8343 27.9152C26.7739 27.9605 26.7285 28.3083 26.7285 28.6561V29.3062L27.5299 29.3516L28.3161 29.3969V40.5101V51.6233L27.5601 51.6989L26.8041 51.7745L26.7587 52.5003L26.7134 53.2109L30.9923 53.1807L35.2713 53.1353L35.3167 52.6364C35.3923 51.9409 35.1352 51.6989 34.3641 51.6989C33.9105 51.6989 33.6837 51.6233 33.6232 51.457C33.5779 51.3209 33.5325 49.3705 33.5325 47.1025V42.9747L34.1222 42.0524C34.7875 41.0242 35.3469 40.6613 36.2239 40.6613C36.9043 40.6613 37.373 41.0242 37.5847 41.75C37.6754 42.0221 37.7812 44.0785 37.8266 46.3313C37.8719 48.7354 37.9778 50.6557 38.0836 51.0185C38.4767 52.3945 40.0643 53.2109 42.3323 53.2109C43.3 53.2109 43.6024 53.1353 44.4038 52.7422C45.3563 52.2584 46.3845 51.1697 46.3845 50.6405C46.3845 50.1718 46.0216 50.0055 45.5378 50.2625C44.9783 50.5498 44.5247 50.5498 43.9804 50.2625C43.0581 49.7938 42.7708 48.4028 42.7557 44.5774C42.7557 41.6441 42.5743 40.5706 41.9392 39.6332C41.2286 38.5748 40.3365 38.1817 38.4767 38.1212C37.0706 38.0607 36.9345 38.0909 36.0575 38.5294C35.5435 38.7713 34.7723 39.3005 34.3339 39.6785L33.5476 40.3741L33.5023 34.7041L33.4569 29.0492L33.0789 28.6409C32.4136 27.9152 31.9298 27.8093 29.3291 27.8093C28.0137 27.8093 26.8797 27.8547 26.8343 27.9152Z" fill="#8A8A8A"/>
<path d="M94.9801 29.2004C92.4097 31.8766 88.9472 36.337 87.5259 38.8469C85.7569 41.9163 84.8194 44.8647 84.6834 47.7677C84.5624 50.1113 84.8194 51.0337 85.8476 52.0316C86.7246 52.8783 87.6771 53.2109 89.2345 53.2109C91.2757 53.1958 93.0296 52.213 95.721 49.5368C97.6563 47.6165 97.8529 47.299 97.3086 46.9664C97.112 46.8303 96.9306 46.921 96.4014 47.4049C94.6474 49.0227 92.9238 50.0357 91.9107 50.0357C91.4118 50.0357 91.1698 49.9299 90.7011 49.5065C89.9149 48.7808 89.7032 47.9341 89.8242 45.8173C90.0963 40.8428 92.4097 35.203 96.1443 30.3797C96.6735 29.6993 97.2027 29.0189 97.3086 28.8677C97.4598 28.6561 97.4446 28.5502 97.1725 28.2176C97.0062 27.9908 96.7491 27.8093 96.5979 27.8093C96.4467 27.8093 95.721 28.4444 94.9801 29.2004Z" fill="#8A8A8A"/>
<path d="M52.0697 38.3329C50.8601 38.605 49.3481 39.2552 48.5921 39.8297C47.8361 40.4043 47.3825 41.4022 47.5034 42.2489C47.7 43.5039 48.5618 44.1389 50.089 44.1389C51.7975 44.1389 52.5686 43.3527 52.5838 41.5988C52.5838 41.1603 52.6896 40.5857 52.8257 40.3438C53.2339 39.5425 54.5494 39.2098 55.4566 39.6785C56.2126 40.0717 56.3638 40.5706 56.3638 42.6723V44.5472L54.9727 44.6379C51.1474 44.8647 48.0326 46.1499 47.2313 47.8282C46.9591 48.4179 46.9138 49.688 47.1557 50.5347C47.3522 51.2605 48.1687 52.1828 48.9247 52.5457C49.6202 52.8783 51.0869 53.1958 51.9185 53.2109C52.7954 53.2109 54.126 52.712 55.5624 51.8501L56.8022 51.0941L57.5431 51.835C58.1328 52.4247 58.5108 52.6515 59.3122 52.8934C61.5953 53.6041 63.5155 52.9841 64.8914 51.1244C65.3753 50.4591 65.4358 50.3079 65.2846 50.0206C65.1485 49.7636 65.0275 49.7182 64.71 49.8089C63.9691 50.0206 63.077 49.9601 62.6688 49.688C61.8372 49.1437 61.7465 48.7203 61.6558 45.2729C61.5802 42.3548 61.5348 42.0373 61.2173 41.3871C60.8544 40.616 59.796 39.5878 58.9342 39.1493C57.1198 38.227 54.126 37.8641 52.0697 38.3329ZM56.394 47.798C56.4545 49.8694 56.4091 50.0055 55.4263 50.5045C54.8064 50.822 53.5666 50.8825 52.992 50.6254C52.1755 50.2625 51.8731 48.8715 52.3721 47.8282C52.871 46.7698 54.2772 45.9836 55.7136 45.9685L56.3335 45.9533L56.394 47.798Z" fill="#8A8A8A"/>
<path d="M64.2563 38.8016L64.3017 39.5273L65.0577 39.6029L65.8137 39.6785L65.8893 44.8949L65.9649 50.1113L66.4033 50.9883C67.1593 52.5457 68.6713 53.2865 70.8637 53.1807C71.8012 53.1505 72.2245 53.0295 73.1469 52.591C73.7668 52.2886 74.6135 51.7897 75.0369 51.4721C75.5661 51.0488 75.7929 50.9581 75.8382 51.1093C75.8836 51.2302 76.2162 51.6233 76.6093 52.0013C77.4712 52.8481 78.4993 53.2109 80.0113 53.2109C81.6292 53.2109 82.7783 52.5759 83.9728 51.0185C84.3357 50.5347 84.3659 50.444 84.1693 50.0962C84.0181 49.7938 83.8972 49.7333 83.6553 49.8241C83.4889 49.8845 83.0051 49.945 82.5817 49.945C81.6594 49.9601 81.2663 49.688 80.8429 48.7505C80.5859 48.2062 80.5557 47.6921 80.5557 43.9877C80.5557 39.3459 80.5103 39.104 79.5124 38.4236C79.0134 38.0909 78.8925 38.0909 76.3372 38.1212L73.6761 38.1665V38.8469V39.5273L74.4321 39.6029L75.1881 39.6785L75.2788 44.5925C75.3393 48.9471 75.3241 49.5519 75.1125 49.8694C74.5228 50.7615 72.6177 51.1697 71.9373 50.5649C71.1208 49.8392 71.1057 49.7182 71.0301 44.3657C70.9393 38.8167 70.9545 38.8318 69.9263 38.3329C69.5029 38.1363 68.8981 38.0909 66.7965 38.0909H64.2109L64.2563 38.8016Z" fill="#8A8A8A"/>
</svg>
