<svg width="138" height="37" viewBox="0 0 138 37" fill="none" xmlns="http://www.w3.org/2000/svg">
<g clip-path="url(#clip0_3540_3152)">
<path d="M56.2729 5.76953H59.37V20.5935H64.7088V23.5196H56.2859L56.2729 5.76953Z" fill="#8A8A8A"/>
<path d="M71.8811 10.2172C73.5219 10.1968 75.0774 10.9408 76.0864 12.2281V10.4815H78.9757V23.5458H76.0864V21.7992C75.0774 23.0865 73.5219 23.8305 71.8811 23.8101C68.2787 23.8101 65.5444 20.7486 65.5444 17.0104C65.5444 13.2722 68.2787 10.2172 71.8811 10.2172ZM72.4062 12.8339C70.0671 12.8339 68.5183 14.6644 68.5183 17.0104C68.5183 19.3565 70.0927 21.1934 72.4062 21.1934C74.7192 21.1934 76.2937 19.3629 76.2937 17.0104C76.2937 14.6579 74.7448 12.8339 72.4062 12.8339Z" fill="#8A8A8A"/>
<path d="M81.2246 21.2761L88.112 13.0908H81.328V10.4805H91.8439V12.7814L84.9826 20.9345H91.9994V23.5448H81.2246V21.2761Z" fill="#8A8A8A"/>
<path d="M99.3466 10.2172C100.987 10.1968 102.543 10.9408 103.551 12.2281V10.4815H106.441V23.5458H103.551V21.7992C102.543 23.0865 100.987 23.8305 99.3466 23.8101C95.7442 23.8101 93.0161 20.7486 93.0161 17.0104C93.0161 13.2722 95.7442 10.2172 99.3466 10.2172ZM99.8712 12.8339C97.5321 12.8339 95.9838 14.6644 95.9838 17.0104C95.9838 19.3565 97.5582 21.1934 99.8712 21.1934C102.184 21.1934 103.759 19.3629 103.759 17.0104C103.759 14.6579 102.21 12.8339 99.8712 12.8339Z" fill="#8A8A8A"/>
<path d="M114.696 10.2165C116.335 10.1951 117.889 10.9395 118.895 12.2274V4.71875H121.784V23.5451H118.895V21.7985C117.889 23.0864 116.335 23.8308 114.696 23.8094C111.094 23.8094 108.359 20.7479 108.359 17.0097C108.359 13.2715 111.094 10.2165 114.696 10.2165ZM115.221 12.8332C112.882 12.8332 111.333 14.6637 111.333 17.0097C111.333 19.3558 112.914 21.1927 115.221 21.1927C117.528 21.1927 119.108 19.3622 119.108 17.0097C119.108 14.6572 117.56 12.8332 115.221 12.8332Z" fill="#8A8A8A"/>
<path d="M130.038 10.2172C131.677 10.1958 133.232 10.9403 134.237 12.2281V10.4815H137.12V23.5459H134.224V21.7993C133.219 23.0871 131.665 23.8316 130.026 23.8101C126.423 23.8101 123.689 20.7487 123.689 17.0105C123.689 13.2722 126.436 10.2172 130.038 10.2172ZM130.564 12.834C128.224 12.834 126.676 14.6644 126.676 17.0105C126.676 19.3565 128.257 21.1934 130.564 21.1934C132.87 21.1934 134.451 19.3629 134.451 17.0105C134.451 14.658 132.902 12.834 130.564 12.834Z" fill="#8A8A8A"/>
<path d="M22.4666 36.4251C22.1533 36.4272 21.8449 36.3474 21.5722 36.1938C19.238 34.8504 1.95001 24.0677 1.29713 23.7385C0.800262 23.5078 0.46098 23.0353 0.402767 22.4929V7.36866C0.389911 6.80411 0.670476 6.27283 1.14508 5.963L1.27029 5.89183C2.94274 4.85982 8.5414 1.4613 9.42682 0.971985C9.63 0.852046 9.86141 0.787597 10.0976 0.785156C10.319 0.787649 10.5367 0.842542 10.7326 0.945296C10.7326 0.945296 18.5672 6.02528 19.7656 6.479C20.6065 6.86331 21.5234 7.05484 22.4487 7.03949C23.4972 7.06129 24.5332 6.80979 25.4537 6.30997C26.6254 5.6961 34.1111 0.971985 34.1916 0.971985C34.3803 0.858593 34.5972 0.800037 34.8177 0.80295C35.0541 0.804101 35.2858 0.868642 35.4884 0.989779C36.508 1.55026 43.4482 5.77617 43.7433 5.963C44.2315 6.25595 44.5274 6.78384 44.5214 7.35087V22.4752C44.4667 23.0188 44.1263 23.4928 43.6271 23.7207C42.9742 24.0765 25.7399 34.8593 23.3609 36.176C23.0901 36.3359 22.7816 36.4218 22.4666 36.4251Z" fill="url(#paint0_linear_3540_3152)"/>
<path d="M22.3774 36.4258L22.4669 36.4257C22.7802 36.4279 23.0886 36.3481 23.3612 36.1944C25.6955 34.851 42.9745 24.0683 43.6274 23.7391C44.1266 23.5112 44.467 23.0372 44.5217 22.4935V7.36927C44.5246 7.11324 44.4664 6.86017 44.3518 6.63086L22.3774 18.6324V36.4258Z" fill="#7D7D88"/>
<path d="M22.3008 36.2119L22.2123 36.2118C21.9023 36.2139 21.5972 36.135 21.3275 35.983C19.0181 34.6538 1.92316 23.986 1.27721 23.6603C0.783314 23.4349 0.446571 22.966 0.392414 22.4281V7.46492C0.389563 7.21161 0.447159 6.96124 0.560528 6.73438L22.3008 18.6081V36.2119Z" fill="#8A8A8A"/>
</g>
<defs>
<linearGradient id="paint0_linear_3540_3152" x1="44.5215" y1="18.6051" x2="0.402344" y2="18.6051" gradientUnits="userSpaceOnUse">
<stop stop-color="#7D7D88"/>
<stop offset="1" stop-color="#676772"/>
</linearGradient>
<clipPath id="clip0_3540_3152">
<rect width="136.728" height="35.64" fill="white" transform="translate(0.392578 0.785156)"/>
</clipPath>
</defs>
</svg>
