<svg width="25" height="24" viewBox="0 0 25 24" fill="none" xmlns="http://www.w3.org/2000/svg">
<path d="M12.5 5.31997H6.59501C6.12223 5.31997 5.6541 5.41322 5.21741 5.59439C4.78072 5.77555 4.38406 6.04107 4.05013 6.37575C3.7162 6.71042 3.45156 7.10768 3.27136 7.54477C3.09117 7.98186 2.99896 8.4502 3.00001 8.92297V15.085C3.00001 16.0384 3.37877 16.9528 4.05296 17.627C4.38679 17.9608 4.7831 18.2257 5.21926 18.4063C5.65543 18.587 6.12291 18.68 6.59501 18.68H12.5C13.4535 18.68 14.3679 18.3012 15.0421 17.627C15.7163 16.9528 16.095 16.0384 16.095 15.085V8.92397C16.0965 8.45099 16.0045 7.98238 15.8245 7.545C15.6445 7.10762 15.3799 6.71007 15.0459 6.37516C14.7119 6.04025 14.3151 5.77455 13.8782 5.59331C13.4413 5.41206 12.973 5.31884 12.5 5.31897M22 9.43797V14.573C22 14.823 21.929 15.069 21.795 15.281C21.6593 15.4936 21.4671 15.6643 21.24 15.774C21.0144 15.8869 20.7603 15.9301 20.51 15.898C20.2633 15.8684 20.0293 15.7723 19.833 15.62L16.608 13.032C16.4531 12.9045 16.3279 12.7448 16.241 12.564C16.1541 12.3831 16.1077 12.1856 16.105 11.985C16.105 11.785 16.15 11.588 16.238 11.41C16.33 11.242 16.456 11.095 16.608 10.978L19.833 8.41097C20.0293 8.25802 20.2638 8.16186 20.511 8.13297C20.761 8.10097 21.015 8.14397 21.24 8.25597C21.4637 8.36332 21.6532 8.53066 21.7874 8.73935C21.9216 8.94805 21.9952 9.1899 22 9.43797Z" stroke="#545454" stroke-width="1.5" stroke-linecap="round" stroke-linejoin="round"/>
</svg>
