<svg width="137" height="45" viewBox="0 0 137 45" fill="none" xmlns="http://www.w3.org/2000/svg">
<path fill-rule="evenodd" clip-rule="evenodd" d="M25.3382 31.5588C25.0994 33.5291 23.9055 35.1072 22.0562 35.8973C21.0263 36.3375 19.6435 36.5751 18.549 36.5005C16.8415 36.4352 15.2374 36.02 13.7587 35.2609C13.2305 34.9896 12.443 34.4478 11.8383 33.9404C11.6852 33.8122 11.667 33.73 11.7683 33.5862C11.823 33.5037 11.9239 33.3549 12.1469 33.0282C12.4704 32.5543 12.5107 32.4949 12.5471 32.4393C12.6506 32.2805 12.8187 32.2666 12.9845 32.3972C13.002 32.4107 13.002 32.4107 13.0151 32.421C13.0423 32.4421 13.0423 32.4421 13.1065 32.492C13.1715 32.5426 13.21 32.5725 13.2256 32.5842C14.8202 33.8331 16.6775 34.5534 18.5525 34.6254C21.1611 34.5899 23.037 33.417 23.3732 31.6159C23.7427 29.6337 22.1867 27.9215 19.1425 26.9671C18.1904 26.6687 15.7838 25.7054 15.3401 25.4451C13.2563 24.2225 12.282 22.6211 12.4205 20.643C12.6327 17.9012 15.1781 15.8562 18.3943 15.8425C19.8326 15.8395 21.2678 16.1384 22.6467 16.7195C23.1349 16.9252 24.0066 17.3996 24.3075 17.6243C24.4808 17.7516 24.5151 17.8999 24.4157 18.06C24.3602 18.1528 24.2685 18.2999 24.0752 18.6067L24.073 18.61C23.8185 19.014 23.8106 19.0267 23.7522 19.1212C23.6513 19.2748 23.5327 19.2891 23.3508 19.1737C21.8754 18.1825 20.2398 17.6838 18.4409 17.6478C16.2014 17.6921 14.5228 19.025 14.4124 20.8406C14.3831 22.4805 15.613 23.6778 18.2699 24.5906C23.6628 26.3236 25.7266 28.3554 25.3382 31.5588ZM18.678 3.2491C22.189 3.2491 25.051 6.58105 25.1849 10.752H12.1712C12.3051 6.58105 15.167 3.2491 18.678 3.2491ZM36.8488 11.5361C36.8488 11.103 36.5 10.752 36.0699 10.752H27.6349C27.4279 5.24482 23.497 0.853516 18.678 0.853516C13.8591 0.853516 9.92818 5.24482 9.72122 10.752L1.27407 10.7521C0.850533 10.7598 0.509528 11.108 0.509528 11.5361C0.509528 11.5566 0.510295 11.5769 0.51182 11.5969H0.505859L1.71 38.1407C1.71015 38.2146 1.7129 38.2891 1.7184 38.364C1.71963 38.3809 1.721 38.3977 1.72238 38.4145L1.72498 38.4705L1.72788 38.4735C1.91084 40.3205 3.25132 41.8082 5.07403 41.8768L5.07815 41.8808H31.8732C31.8859 41.881 31.8986 41.8811 31.9112 41.8811C31.9239 41.8811 31.9366 41.881 31.9493 41.8808H32.0063L32.0075 41.8798C33.862 41.8291 35.3642 40.3207 35.5229 38.4508L35.5238 38.4499L35.525 38.4248C35.5265 38.4051 35.528 38.3856 35.5292 38.3659C35.5321 38.3188 35.5341 38.2718 35.5348 38.2252L36.8487 11.5766H36.8478C36.8486 11.5632 36.8488 11.5497 36.8488 11.5361ZM126.176 28.8359C126.692 27.1519 128.253 26.0293 130.075 26.0293C131.814 26.0293 133.469 27.2101 134.041 28.8327L134.08 28.9442H126.143L126.176 28.8359ZM135.847 31.2756C135.858 31.276 135.858 31.276 135.873 31.2762C135.889 31.276 135.889 31.276 135.905 31.2756C136.285 31.2581 136.586 30.9341 136.586 30.5399C136.586 30.5208 136.585 30.5043 136.584 30.4779C136.584 30.473 136.584 30.4634 136.584 30.4323C136.584 26.7133 133.669 23.6994 130.073 23.6994C126.477 23.6994 123.562 26.7133 123.562 30.4323C123.562 30.7096 123.578 30.9861 123.61 31.2609L123.612 31.2756L123.622 31.3481C123.801 32.6863 124.372 33.9144 125.274 34.9083C125.274 34.9078 125.275 34.9087 125.279 34.9139C126.279 36.0142 127.637 36.7641 129.142 37.0446L129.162 37.0484V37.0464L129.26 37.0627C129.31 37.0713 129.363 37.0797 129.434 37.0907C131.416 37.329 133.173 37.0433 134.662 36.2937C135.028 36.1091 135.358 35.9053 135.644 35.69C135.735 35.6207 135.818 35.5536 135.89 35.4908C135.926 35.4585 135.956 35.4313 135.971 35.4155C136.307 35.0695 136.328 34.9469 136.125 34.631C135.902 34.276 135.706 33.9735 135.537 33.7231C135.478 33.6355 135.427 33.5608 135.383 33.4987C135.359 33.4647 135.359 33.4647 135.344 33.4431C135.339 33.4347 135.339 33.4347 135.334 33.4294L135.332 33.4267C135.149 33.1983 135.023 33.1774 134.82 33.3572C134.798 33.3764 134.725 33.4325 134.712 33.4464C133.28 34.7179 131.325 35.127 129.372 34.7184C129.009 34.6208 128.668 34.4967 128.355 34.347C127.132 33.7336 126.265 32.6406 126.015 31.3754L125.995 31.2755L135.847 31.2756ZM110.682 28.8359C111.198 27.1519 112.759 26.0293 114.581 26.0293C116.32 26.0293 117.975 27.2101 118.547 28.8327L118.586 28.9442H110.649L110.682 28.8359ZM120.353 31.2756C120.363 31.276 120.364 31.276 120.379 31.2762C120.395 31.276 120.395 31.276 120.411 31.2756C120.791 31.2581 121.092 30.9341 121.092 30.5399C121.092 30.5208 121.091 30.5043 121.09 30.4779C121.09 30.473 121.09 30.4634 121.09 30.4323C121.09 26.7133 118.174 23.6994 114.579 23.6994C110.983 23.6994 108.067 26.7133 108.067 30.4323C108.067 30.7096 108.084 30.9861 108.116 31.2609L108.118 31.2756L108.128 31.3481C108.307 32.6863 108.878 33.9144 109.78 34.9083C109.78 34.9078 109.78 34.9087 109.785 34.9139C110.785 36.0142 112.142 36.7641 113.648 37.0446L113.668 37.0484V37.0464L113.765 37.0627C113.816 37.0713 113.869 37.0797 113.94 37.0907C115.922 37.329 117.679 37.0433 119.168 36.2937C119.534 36.1091 119.864 35.9053 120.149 35.69C120.241 35.6207 120.324 35.5536 120.395 35.4908C120.432 35.4585 120.461 35.4313 120.477 35.4155C120.813 35.0695 120.834 34.9469 120.631 34.631C120.408 34.276 120.211 33.9735 120.043 33.7231C119.984 33.6355 119.932 33.5608 119.889 33.4987C119.865 33.4647 119.865 33.4647 119.85 33.4431C119.844 33.4347 119.844 33.4347 119.84 33.4294L119.839 33.4267C119.655 33.1983 119.529 33.1774 119.326 33.3572C119.304 33.3764 119.232 33.4325 119.218 33.4464C117.787 34.7179 115.831 35.127 113.879 34.7184C113.515 34.6208 113.175 34.4967 112.862 34.347C111.638 33.7336 110.772 32.6406 110.521 31.3754L110.502 31.2755L120.353 31.2756ZM98.857 34.9838C96.4353 34.9838 94.4546 33.0637 94.3938 30.6575V30.4311C94.454 28.0288 96.4353 26.1084 98.857 26.1084C101.323 26.1084 103.321 28.0952 103.321 30.5461C103.321 32.997 101.323 34.9838 98.857 34.9838ZM98.8585 23.7542C97.2701 23.7542 95.7524 24.2952 94.5326 25.2874L94.394 25.4001V24.1583C94.394 23.8271 94.3228 23.7542 93.9876 23.7542H92.4288C92.0892 23.7542 92.0223 23.8217 92.0223 24.1583V43.9544C92.0223 44.2795 92.0981 44.3585 92.4288 44.3585H93.9876C94.3196 44.3585 94.394 44.2812 94.394 43.9544V35.6988L94.5326 35.8115C95.7525 36.8039 97.2702 37.3449 98.8585 37.3449C102.634 37.3449 105.694 34.3025 105.694 30.5495C105.694 26.7966 102.634 23.7542 98.8585 23.7542ZM82.8042 34.8321C80.3337 34.8321 78.3309 32.8627 78.3309 30.4327C78.3309 28.0027 80.3338 26.0332 82.8042 26.0332C85.2743 26.0332 87.2772 28.0027 87.2772 30.4327C87.2772 32.8626 85.2744 34.8321 82.8042 34.8321ZM82.8056 23.6994C79.0227 23.6994 75.9565 26.7156 75.9565 30.4361C75.9565 34.1564 79.0227 37.1727 82.8056 37.1727C86.5884 37.1727 89.6543 34.1564 89.6543 30.4361C89.6543 26.7156 86.5886 23.6994 82.8056 23.6994ZM67.5377 23.8491C66.1568 23.8491 64.8205 24.293 63.7119 25.1136L63.5771 25.2134V16.0197C63.5771 15.7149 63.4771 15.6155 63.1724 15.6155H61.5407C61.2112 15.6155 61.1359 15.6943 61.1359 16.0197V36.9928C61.1359 37.3103 61.2172 37.3973 61.5407 37.3973H63.1724C63.4751 37.3973 63.5771 37.2929 63.5771 36.9928V30.1423C63.594 27.9858 65.3627 26.2452 67.5377 26.2452C69.7183 26.2452 71.4889 27.9943 71.4982 30.1579V36.9928C71.4982 37.3397 71.5559 37.3971 71.903 37.3971H73.5307C73.8757 37.3971 73.9355 37.338 73.9355 36.9928V30.1378C73.9225 26.6799 71.0391 23.8491 67.5377 23.8491ZM44.8009 33.5929L44.7971 33.5988C44.5644 33.9512 44.467 34.0995 44.4125 34.1846C44.2291 34.4576 44.2519 34.5793 44.532 34.8161C45.1857 35.3431 46.026 35.8965 46.5929 36.1737C48.1702 36.945 49.8739 37.3526 51.6792 37.3895C52.8455 37.4483 54.3102 37.171 55.4009 36.6846C57.3755 35.8037 58.6333 34.0869 58.8537 31.9723C59.2108 28.5458 56.9813 26.4039 51.2388 24.6777L51.2373 24.6772C48.5618 23.8144 47.305 22.6672 47.3045 21.0657C47.3833 19.2955 49.0246 17.9731 51.2389 17.8906C53.0225 17.895 54.5995 18.3687 56.149 19.3659C56.4758 19.5641 56.6264 19.5275 56.8461 19.2425C56.8714 19.2004 56.9416 19.0984 57.2353 18.6766L57.2362 18.6753C57.5105 18.2813 57.6007 18.1498 57.6232 18.1109C57.8083 17.7626 57.7819 17.6283 57.4478 17.3914C57.1187 17.1557 56.1919 16.6734 55.6618 16.4619C54.1876 15.8737 52.6635 15.5881 51.1466 15.6176C47.6946 15.6926 45.0024 17.9376 44.825 20.8828C44.7124 23.0102 45.7921 24.7209 48.048 25.9855C48.6804 26.3194 50.9927 27.1935 52.072 27.5095C55.1408 28.4082 56.7407 30.0614 56.4102 32.0119C56.1099 33.7841 54.2531 34.9627 51.6475 35.0433C49.7579 35.004 47.8542 34.3115 46.2011 33.0693C46.1929 33.0633 46.151 33.0321 46.0737 32.9745C45.9651 32.8935 45.9651 32.8935 45.9489 32.8814C45.6119 32.6488 45.4136 32.6681 45.2079 32.9747C45.1831 33.0126 44.9271 33.4017 44.8009 33.5929Z" fill="#8A8A8A"/>
</svg>
