<svg width="113" height="28" viewBox="0 0 113 28" fill="none" xmlns="http://www.w3.org/2000/svg">
<g clip-path="url(#clip0_3540_3139)">
<path fill-rule="evenodd" clip-rule="evenodd" d="M107.157 17.4067C107.139 20.0521 107.516 24.6185 103.924 25.5829C100.014 26.6323 98.971 21.9299 101.594 19.5561C102.779 18.4828 105.187 17.6703 107.157 17.4067ZM51.723 2.41728C48.9024 3.3902 50.6021 7.16108 52.9993 6.33671C55.5506 5.45905 54.3543 1.51014 51.723 2.41728ZM48.9755 10.9824C49.5663 11.9893 51.3233 10.1399 51.3562 13.5479L51.3573 23.6892C51.3505 24.4881 51.35 25.3045 50.8482 25.7258C50.0295 26.4124 49.2941 25.5988 48.9755 26.4169C49.3656 26.7378 50.1089 26.6284 50.7359 26.6233C51.3783 26.6182 52.0229 26.6227 52.6659 26.6227C53.5282 26.6233 55.8777 26.7769 56.447 26.4169C56.3546 26.2445 56.7117 26.2054 55.5869 26.0416C53.4835 25.7354 54.0725 24.2522 54.0725 19.6638C54.0725 16.6107 54.081 13.5559 54.072 10.5028C53.3338 10.4381 49.2817 10.5203 48.9755 10.9824ZM45.1077 12.7927C44.0747 12.9435 43.2928 13.1306 43.023 14.0729C42.7077 15.174 43.3081 16.0403 43.9806 16.2926C46.0454 17.0659 47.121 14.8021 46.3306 12.9832C44.9943 9.90745 41.0233 9.22029 37.5189 11.1077C31.1774 14.5225 31.8798 25.3731 38.866 27.0309C43.1346 28.0435 47.2066 24.1757 46.8857 23.4012C46.5262 22.5343 45.9258 25.3005 42.5943 25.8369C36.0629 26.8886 35.594 17.6108 37.2666 13.5859C39.0644 9.26168 44.6757 10.3395 45.1077 12.7927ZM0.253418 20.3906V26.8846C1.30174 26.6862 0.697351 25.3533 2.447 25.6594C3.62232 25.8652 7.5236 28.1994 10.9027 25.9701C13.2539 24.4195 14.7439 19.5946 9.29764 17.5309C7.54175 16.8658 5.55057 16.5755 3.90921 15.8498C-0.511417 13.8949 3.62345 8.39763 8.66207 11.7342C9.73987 12.448 10.4809 13.4011 10.9804 14.7244C11.1629 15.2086 11.18 15.6134 11.5077 16.0329C11.5349 15.9933 11.5632 15.8804 11.5717 15.9031C11.6817 16.1979 11.8654 11.5131 11.6522 10.2318C10.7037 10.4336 11.0405 11.5284 9.17744 11.0635C7.40964 10.6218 3.84684 8.86707 1.3057 12.0341C0.159302 13.4623 0.16894 15.8645 1.27169 17.3551C2.16409 18.5616 4.1479 19.2454 6.08295 19.784C7.77364 20.2557 10.1424 20.9003 10.9401 22.0059C12.3235 23.9217 10.3034 25.8409 8.73748 26.2247C4.59296 27.2407 1.1084 23.7363 0.63782 20.3912L0.253418 20.3906ZM80.0293 0.798034C80.3842 1.1796 80.0367 1.01008 81.4371 1.06281C82.1237 1.08889 82.2155 1.12347 82.609 1.49653C83.0518 2.17009 78.5898 16.8908 78.0801 18.7107C77.47 20.8867 75.3337 26.0319 78.3312 26.8053C80.0973 27.2611 81.3055 25.9758 82.0261 25.2268C82.719 24.5079 83.2332 23.6654 83.7367 22.7435C84.0854 22.1057 84.1449 22.2129 83.8852 21.757C83.4118 21.973 82.8261 23.1727 82.038 24.1127C81.4529 24.8095 80.6728 25.7564 79.5803 25.0766C79.1777 23.6495 80.4477 20.0601 80.8673 18.6013L86.0873 0.00938617L81.3089 0.398324C79.934 0.511717 80.2453 0.474864 80.0293 0.798034ZM90.034 0.853596C90.6474 1.41773 91.973 0.626244 92.5518 1.52432C92.989 2.30786 90.8923 8.7826 90.5187 10.0883C89.6949 12.9702 88.9357 15.7126 88.0972 18.6002C87.4463 20.8397 85.4075 25.8091 88.1834 26.7616C91.0159 27.7334 94.2714 22.6936 93.8797 21.8591C93.476 21.8126 93.8383 21.5404 92.9714 22.8269C92.4566 23.59 90.8277 26.312 89.7074 25.0437C88.8683 24.2885 90.5227 19.839 90.8186 18.7487C91.6158 15.8084 95.8272 1.45968 96.0761 -0.00195312L90.5799 0.475431C89.8741 0.662529 90.3276 0.276993 90.034 0.853596ZM65.0563 10.7726C67.1467 10.0509 68.5556 11.3827 69.2388 12.5767C70.8927 15.4677 71.2873 25.3765 67.0968 26.5394C63.2069 27.6189 62.0242 23.1937 61.8632 19.8225C61.6874 16.1322 62.0945 11.7954 65.0563 10.7726ZM58.6355 19.8248C59.1423 23.6263 62.7499 27.9624 67.1898 27.1046C70.8808 26.3914 74.117 22.1539 73.5636 17.4135C73.1027 13.4635 69.5229 9.34786 65.0161 10.1546C61.2418 10.8305 57.9999 15.0623 58.6355 19.8248ZM18.834 20.1463C18.1088 8.78373 24.4118 9.51681 25.9879 12.2592C26.8832 13.8172 27.1797 15.2318 27.301 17.2491C27.5136 20.779 27.1015 25.4451 24.2627 26.473C20.3886 27.8751 19.0387 23.357 18.834 20.1463ZM22.1898 10.1478C15.3732 11.3209 13.3339 20.3634 18.2007 25.0295C24.0115 30.6 31.1655 24.4371 30.5452 17.646C30.137 13.1811 26.2499 9.44935 22.1898 10.1478ZM112.796 24.0782V22.6868C111.809 22.6732 112.544 22.6625 112.249 22.8796C112.059 26.7866 110.407 25.7706 110.108 25.0879C109.769 24.3129 109.899 20.4643 109.899 19.3423C109.899 15.3996 110.276 11.7336 106.763 10.5838C103.624 9.55537 99.1729 10.5164 98.1126 12.8625C97.2571 14.7573 98.5849 16.5914 100.441 15.6684C101.009 15.3849 101.523 14.5628 101.212 13.5956C100.909 12.6561 100.211 12.8262 99.5215 12.2683C99.9972 10.848 103.555 10.2618 105.256 11.1264C106.978 12.0024 107.167 14.3916 107.153 16.766C103.148 17.714 96.7015 19.1116 96.9702 23.6904C97.1834 27.3155 102.13 27.997 105.142 25.8369C106.275 25.0244 106.359 24.4121 107.151 23.4692C107.077 28.2249 111.157 27.0615 111.864 26.2905C112.408 25.698 112.432 24.7733 112.796 24.0782Z" fill="#8A8A8A"/>
</g>
<defs>
<clipPath id="clip0_3540_3139">
<rect width="112.549" height="27.216" fill="white" transform="translate(0.25 -0.00195312)"/>
</clipPath>
</defs>
</svg>
