<svg width="25" height="24" viewBox="0 0 25 24" fill="none" xmlns="http://www.w3.org/2000/svg">
<path d="M18.5003 4C18.6509 4 18.7995 4.034 18.935 4.09945C19.0706 4.1649 19.1897 4.26012 19.2833 4.378L19.3573 4.486L22.3573 9.486C22.4556 9.64995 22.5048 9.83863 22.4991 10.0297C22.4934 10.2207 22.4331 10.4062 22.3253 10.564L22.2453 10.667L13.7153 20.2C13.5569 20.3616 13.3679 20.4899 13.1592 20.5775C12.9506 20.6651 12.7266 20.7101 12.5003 20.71C12.1003 20.71 11.7153 20.57 11.3903 20.293L11.2553 20.167L2.75531 10.667C2.62743 10.5243 2.54324 10.3479 2.51275 10.1587C2.48225 9.96958 2.50675 9.77564 2.58331 9.6L2.64331 9.485L5.65631 4.463L5.72031 4.373C5.76619 4.31616 5.81817 4.26452 5.87531 4.219L5.96431 4.155L6.05231 4.105L6.10231 4.082L6.16231 4.057L6.27131 4.025L6.38331 4.005L6.50031 4H18.5003ZM9.61431 7.943C9.38697 7.80686 9.1149 7.76652 8.85784 7.83083C8.60078 7.89514 8.37975 8.05885 8.24331 8.286L7.64331 9.286L7.58331 9.402C7.50677 9.57848 7.48276 9.77329 7.51415 9.96308C7.54555 10.1529 7.63102 10.3296 7.76031 10.472L9.76031 12.672L9.85031 12.76C10.0354 12.9184 10.272 13.0038 10.5156 13.0001C10.7592 12.9964 10.9931 12.9039 11.1733 12.74L11.2603 12.65C11.4187 12.4649 11.5041 12.2283 11.5004 11.9847C11.4967 11.7411 11.4042 11.5072 11.2403 11.327L9.73931 9.677L9.95731 9.314L10.0123 9.211C10.1128 8.98758 10.1278 8.73505 10.0544 8.50132C9.98106 8.26759 9.82445 8.06892 9.61431 7.943Z" fill="black"/>
</svg>
