<svg width="178" height="33" viewBox="0 0 178 33" fill="none" xmlns="http://www.w3.org/2000/svg">
<g clip-path="url(#clip0_3540_3142)">
<path d="M123.422 21.0701C123.449 21.8987 123.823 22.6787 124.574 23.347C125.323 24.0177 126.263 24.3384 127.388 24.3384C129.614 24.3384 130.875 23.1599 131.113 21.6314C131.247 19.8089 129.906 18.764 127.979 18.3339L125.592 17.7434C122.591 16.9658 121.092 15.3571 121.092 12.9198C121.092 11.3914 121.683 10.1569 122.861 9.19465C124.04 8.20321 125.434 7.72207 127.07 7.72207C128.785 7.72207 130.205 8.22994 131.33 9.22138C132.457 10.2128 133.018 11.5007 133.018 13.1337H130.525C130.525 11.3112 129.079 10.1059 127.041 10.1059C126.103 10.1059 125.298 10.3756 124.603 10.8835C123.933 11.3914 123.585 12.0621 123.585 12.8907C123.585 14.1762 124.47 15.0364 126.212 15.4641L128.623 16.0545C132.132 16.9391 133.903 18.9487 133.555 21.8428C133.393 23.2352 132.749 24.3894 131.653 25.2983C130.552 26.2095 129.133 26.6664 127.391 26.6664C125.541 26.6664 124.013 26.1026 122.781 25.0042C121.549 23.8791 120.932 22.5669 120.932 21.0652L123.422 21.0701ZM138.192 26.399H135.755V7.07812H138.194V15.7629C138.542 15.0655 139.106 14.5309 139.91 14.1834C140.741 13.8068 141.545 13.6197 142.323 13.6197C145.458 13.6197 147.414 15.656 147.387 19.1674V26.4039H144.947V19.3277C144.947 17.2914 143.742 16.0059 142 16.0059C141.008 16.0059 140.124 16.3 139.346 16.9172C138.569 17.5077 138.194 18.4189 138.194 19.6509V26.4015L138.192 26.399ZM151.064 15.413C152.322 14.2053 153.878 13.6172 155.727 13.6172C157.576 13.6172 159.131 14.2077 160.39 15.413C161.649 16.6183 162.293 18.1735 162.293 20.1029C162.293 22.0348 161.649 23.6143 160.361 24.8463C159.102 26.054 157.547 26.6688 155.724 26.6688C153.902 26.6688 152.347 26.0516 151.088 24.8463C149.829 23.641 149.185 22.0591 149.185 20.1029C149.188 18.1735 149.805 16.6183 151.064 15.413ZM158.65 17.1286C157.87 16.3777 156.881 16.0011 155.729 16.0011C154.577 16.0011 153.586 16.3777 152.782 17.1286C152.006 17.877 151.603 18.8709 151.603 20.1029C151.603 21.3617 152.006 22.3823 152.782 23.1574C153.586 23.935 154.577 24.3092 155.729 24.3092C156.881 24.3092 157.873 23.9326 158.65 23.1574C159.454 22.3798 159.855 21.3617 159.855 20.1029C159.855 18.8709 159.454 17.8795 158.65 17.1286ZM166.752 13.8846V15.8407C167.583 14.4459 169.325 13.6172 171.121 13.6172C172.863 13.6172 174.362 14.2345 175.57 15.4397C176.775 16.645 177.393 18.227 177.393 20.1831C177.393 22.115 176.775 23.6677 175.57 24.873C174.362 26.0807 172.89 26.6688 171.121 26.6688C169.298 26.6688 167.529 25.9203 166.752 24.5255V32.4838H164.314V13.887L166.752 13.8846ZM168.01 23.2109C168.798 23.918 169.821 24.2995 170.878 24.285C173.208 24.285 174.924 22.6496 174.924 20.2098C174.924 18.9778 174.52 17.9572 173.745 17.1821C172.97 16.4045 172.03 16.0035 170.878 16.0035C169.726 16.0035 168.761 16.3802 167.957 17.1553C167.182 17.9038 166.778 18.9244 166.778 20.2098C166.778 21.471 167.179 22.4892 168.01 23.2109Z" fill="#8A8A8A"/>
<path d="M10.5271 11.9087V10.7569C10.1432 10.7035 9.75679 10.6743 9.37042 10.6719C4.63921 10.6767 0.804665 14.5137 0.799805 19.2449C0.799805 22.0418 2.16547 24.6614 4.45939 26.2628C4.42051 26.219 4.37919 26.1753 4.34031 26.1315C2.9868 24.6152 2.20921 22.6153 2.20921 20.4259C2.19463 15.7967 5.89551 12.0059 10.5271 11.9087Z" fill="#8A8A8A"/>
<path d="M10.7288 24.3748C12.8453 24.3603 14.5779 22.6884 14.6702 20.5743L14.6799 1.94594L18.0625 1.95081L18.0552 1.90949C17.9823 1.52069 17.9459 1.12461 17.9459 0.728516H13.2875L13.2803 19.3933C13.2025 21.4953 11.4772 23.1598 9.37281 23.1623C8.71914 23.1623 8.0995 22.9995 7.55518 22.7127C8.26717 23.6993 9.42142 24.3748 10.7288 24.3748ZM24.4242 8.31983V7.20932C23.1242 7.20932 21.9116 6.82295 20.8959 6.15956C21.7998 7.19717 23.0294 8.02094 24.4242 8.31983Z" fill="#8A8A8A"/>
<path d="M20.8937 6.1578C19.8658 4.98168 19.2996 3.47265 19.2996 1.91016H18.019C18.3495 3.68406 19.4357 5.20767 20.8937 6.1578ZM9.37063 15.297C7.19578 15.314 5.43888 17.0734 5.42188 19.2458C5.42188 20.7499 6.31125 22.0549 7.55541 22.711C7.07427 22.0476 6.81426 21.2481 6.81426 20.4292C6.81669 18.2665 8.56872 16.5169 10.729 16.5145C11.1299 16.5145 11.5187 16.5825 11.8832 16.6967V11.9436C11.5017 11.8902 11.1154 11.861 10.729 11.8586C10.661 11.8586 10.5953 11.8634 10.5273 11.8634L10.4957 11.8683L10.4933 15.4598C10.1288 15.3456 9.7497 15.2922 9.37063 15.297Z" fill="#545454"/>
<path d="M24.4244 8.24705L24.4001 8.24219L24.3903 11.8289C22.0673 11.8264 19.8025 11.0926 17.9193 9.73178L17.9144 19.2501C17.9217 23.9594 14.109 27.7818 9.4021 27.7891C9.39239 27.7891 9.38509 27.7891 9.37537 27.7891C7.62091 27.8037 5.9029 27.2715 4.46191 26.2704C6.08029 28.0151 8.35235 29.0065 10.7337 29.0065C15.465 29.0017 19.3019 25.1671 19.3068 20.4335V10.9686C21.1949 12.327 23.4621 13.056 25.7876 13.0512V8.39042C25.3162 8.39042 24.8618 8.33939 24.4244 8.24705Z" fill="#545454"/>
<path d="M17.9435 19.2482V9.78093C19.8316 11.1393 22.0988 11.8683 24.4243 11.8634V8.24517C23.0538 7.94871 21.8145 7.21728 20.8959 6.1578C19.4088 5.19066 18.3809 3.6549 18.0553 1.91016H14.6435L14.6363 20.575C14.5585 22.6769 12.8332 24.3415 10.7288 24.3439C9.47007 24.3415 8.28909 23.734 7.55523 22.711C5.64282 21.7025 4.90653 19.3357 5.91498 17.4209C6.59052 16.1378 7.92216 15.3335 9.37287 15.3286C9.77625 15.3286 10.1651 15.3942 10.5296 15.5084V11.8586C5.87853 11.9728 2.16549 15.7733 2.1582 20.4243C2.1582 22.6769 3.03543 24.7303 4.45941 26.2636C5.89797 27.2745 7.61355 27.8164 9.37287 27.8164C14.1065 27.8115 17.9411 23.977 17.9459 19.2434V19.2482H17.9435ZM30.1494 7.86852H43.9421L42.676 11.8148L39.0991 11.8124V26.3997H34.64V11.8124L30.1542 11.8197L30.1494 7.86852ZM66.5362 7.86852H80.6496L79.3812 11.8148L75.4932 11.8124V26.3997H71.0268V11.8124L66.541 11.8197L66.5362 7.86852ZM44.7828 13.7637H49.2054L49.2006 26.4046H44.8096L44.7828 13.7637ZM50.9575 7.81506H55.3752V16.4489L59.7516 12.1526H65.0247L59.4868 17.5278L65.6905 26.4046H60.8233L56.685 20.2494L55.3752 21.5227V26.407H50.9599L50.9575 7.81506ZM97.7641 7.81506H102.179V16.4489L106.558 12.1526H111.831L106.293 17.5278L112.495 26.4046H107.627L103.489 20.2494L102.179 21.5227V26.407H97.7641V7.81506ZM46.9917 12.3203C48.2213 12.3203 49.2176 11.324 49.2176 10.0968C49.2176 8.86725 48.2213 7.87095 46.9941 7.87095H46.9917C45.7621 7.87095 44.7683 8.86725 44.7683 10.0968C44.7683 11.324 45.7646 12.3178 46.9917 12.3203Z" fill="#8A8A8A"/>
<path d="M80.0835 18.8365C80.0835 14.8878 83.121 11.6024 87.0576 11.2938C86.8364 11.2768 86.6153 11.2695 86.3942 11.2695C82.2146 11.2695 78.8296 14.6569 78.8296 18.8341C78.8296 23.0137 82.217 26.3987 86.3942 26.3987C86.5959 26.3987 86.8607 26.389 87.0576 26.3744C83.121 26.0682 80.0835 22.7829 80.0835 18.8365Z" fill="#8A8A8A"/>
<path d="M88.7757 11.2695C88.574 11.2695 88.3067 11.2817 88.1074 11.2938C92.2724 11.6267 95.378 15.2717 95.0451 19.4368C94.7486 23.1401 91.8083 26.0779 88.1074 26.3744C88.3043 26.3914 88.574 26.3987 88.7757 26.3987C92.9553 26.3987 96.3403 23.0113 96.3403 18.8341C96.3403 14.6569 92.9528 11.2695 88.7757 11.2695Z" fill="#545454"/>
<path d="M87.5802 11.2695C83.4006 11.2671 80.0132 14.6545 80.0107 18.8317C80.0083 23.0113 83.3957 26.3987 87.5729 26.4011C87.5753 26.4011 87.5778 26.4011 87.5778 26.4011C91.7574 26.4011 95.1424 23.0137 95.1424 18.8365C95.1472 14.6569 91.7598 11.2695 87.5802 11.2695ZM87.5802 22.5131C85.5487 22.5131 83.9012 20.8656 83.9012 18.8341C83.9012 16.8026 85.5487 15.1551 87.5802 15.1551C89.6117 15.1551 91.2592 16.8026 91.2592 18.8341C91.2592 20.8656 89.6117 22.5131 87.5802 22.5131Z" fill="#8A8A8A"/>
</g>
<defs>
<clipPath id="clip0_3540_3142">
<rect width="176.593" height="31.7552" fill="white" transform="translate(0.799805 0.728516)"/>
</clipPath>
</defs>
</svg>
