<svg width="149" height="33" viewBox="0 0 149 33" fill="none" xmlns="http://www.w3.org/2000/svg">
<path fill-rule="evenodd" clip-rule="evenodd" d="M79.7678 23.0701C78.1622 24.7016 76.2411 25.5216 74.0169 25.5216C72.2166 25.5216 70.6867 25.1541 69.1265 24.2458V20.5042C70.3827 21.357 71.9606 22.1693 73.5182 22.1693C76.7656 22.1693 78.6966 19.9317 78.6966 16.7618C78.6966 13.5883 76.6977 11.2842 73.448 11.2842C71.9972 11.2842 70.8211 11.8065 69.9025 12.8533C68.9178 13.9872 68.4089 15.608 68.4089 17.751V32.518H68.1642C66.3743 32.518 64.9245 31.0657 64.9245 29.2743V17.1962C64.9245 12.0695 68.0538 7.93265 73.4309 7.93265C76.0866 7.93265 78.2437 8.84202 79.8799 10.6685C81.4176 12.3753 82.1796 14.5394 82.1796 17.1397C82.1796 19.4556 81.3755 21.4353 79.7687 23.0679L79.7678 23.0701ZM117.479 22.945C115.88 24.664 113.822 25.5217 111.326 25.5217C108.692 25.5217 106.546 24.6123 104.91 22.7858C103.373 21.058 102.611 18.8928 102.611 16.3147C102.611 11.7494 106.13 7.93387 110.763 7.93387C112.549 7.93387 114.1 8.31136 115.668 9.17197V12.9505C114.412 12.0977 112.834 11.2854 111.276 11.2854C108.029 11.2854 106.094 13.5227 106.094 16.6966C106.094 19.8254 108.14 22.1742 111.343 22.1742C112.792 22.1742 113.986 21.6301 114.941 20.5346C115.89 19.4457 116.383 17.846 116.383 15.696V3.94294C116.383 2.1508 117.834 0.699219 119.622 0.699219H119.867V16.2493C119.867 18.9877 119.076 21.2282 117.478 22.9495L117.479 22.945ZM127.319 6.27582C126.954 6.6858 126.429 6.87455 125.79 6.87455C124.594 6.87455 123.738 5.99141 123.738 4.80281C123.738 3.58651 124.577 2.76542 125.79 2.76542C126.956 2.76542 127.842 3.6312 127.842 4.80281C127.842 5.38233 127.672 5.87912 127.319 6.27582ZM145.023 15.6945C145.023 14.319 144.503 13.2305 143.459 12.4053C142.519 11.6629 141.344 11.2854 139.915 11.2854C136.761 11.2854 134.736 13.7539 134.736 16.7963C134.736 19.7257 136.883 22.1705 139.882 22.1705C141.968 22.1705 143.083 20.9505 144.273 19.4306V23.8112C143.667 24.2659 142.97 24.7615 142.258 25.0526C141.507 25.3665 140.611 25.5191 139.575 25.5191C134.559 25.5191 131.253 21.3601 131.253 16.5547C131.253 14.0867 132.019 12.0448 133.56 10.4566C135.196 8.77047 137.343 7.93424 139.969 7.93424C144.948 7.93424 148.512 10.7972 148.512 15.9715V25.1797H148.268C146.478 25.1797 145.027 23.7273 145.027 21.9356L145.023 15.6945ZM97.3382 14.7065C96.898 13.3428 96.3461 12.672 95.0763 11.9621C92.0568 10.2727 89.0853 11.711 87.7039 14.6932L97.3382 14.7065ZM94.6796 25.4696C92.4538 25.9431 90.2694 25.5781 88.1382 24.3855C86.0595 23.2235 84.6677 21.4953 83.9718 19.2108C82.5613 14.5938 85.4508 9.44492 90.0995 8.20018C92.4032 7.58261 94.6131 7.86214 96.7111 9.03604C100.196 10.987 101.468 14.0039 101.243 17.8933L87.2037 17.8652C87.4107 19.4509 88.3923 20.6915 89.7726 21.4631C91.1718 22.2458 92.4583 22.4331 93.6509 22.0622C94.9766 21.6456 96.0514 20.5626 96.9257 19.5547L99.7867 21.6415C98.6199 23.7321 97.0313 24.9695 94.6785 25.4718L94.6796 25.4696ZM124.062 8.27959H127.546V25.1778H127.301C125.513 25.1778 124.062 23.7255 124.062 21.9337L124.062 8.27959ZM5.86697 25.1778C2.45889 25.1778 0.766113 22.8568 0.766113 19.6153V7.31926C0.766113 5.52749 2.21696 4.07554 4.00651 4.07554H4.25117V8.28255H10.1388V11.6334H4.25117V20.0068C4.25117 21.4303 4.88573 21.8303 6.24424 21.8303H10.1373V25.1808L5.86697 25.1778ZM26.1042 23.0422C24.383 24.6947 22.3146 25.5224 19.91 25.5224C17.5288 25.5224 15.4703 24.6936 13.7491 23.0422C12.022 21.3837 11.161 19.2747 11.161 16.7298C11.161 11.7656 14.947 7.93535 19.9075 7.93535C22.2895 7.93535 24.3509 8.77047 26.0832 10.4341C27.8214 12.1028 28.6894 14.2089 28.6894 16.728C28.6894 19.2717 27.8273 21.3819 26.1001 23.0403L26.1042 23.0422ZM42.3967 12.3455C41.8855 13.2039 41.4892 13.8193 41.2103 14.1912C40.9029 14.5956 40.5994 14.9185 40.2987 15.1419C42.7202 15.925 43.6222 17.6048 43.6222 20.1061V25.1774H43.3776C41.5884 25.1774 40.1372 23.7251 40.1372 21.9334V20.4519C40.1372 18.8315 39.4114 17.7323 37.6968 17.7323H34.5325V25.1786H34.2878C32.4986 25.1786 31.0489 23.7262 31.0489 21.9345V3.94294C31.0489 2.1508 32.4983 0.699219 34.2878 0.699219H34.5325V14.3508H35.5623C36.694 14.3508 37.4375 13.9633 37.8645 13.2301L40.7913 8.28439L44.7619 8.28044L42.3967 12.3455ZM60.3845 23.0422C58.6626 24.6947 56.5949 25.5224 54.1903 25.5224C51.8094 25.5224 49.7506 24.6936 48.0294 23.0422C46.3023 21.3837 45.4413 19.2747 45.4413 16.7298C45.4413 11.7656 49.2273 7.93535 54.1878 7.93535C56.5705 7.93535 58.6312 8.77047 60.3635 10.4341C62.1017 12.1028 62.9693 14.2089 62.9693 16.728C62.9693 19.2717 62.1076 21.3819 60.3804 23.0403L60.3845 23.0422ZM57.8695 12.7961C56.9088 11.7904 55.6896 11.2854 54.19 11.2854C50.9836 11.2854 49.0633 13.6261 49.0633 16.7298C49.0633 19.7892 51.0283 22.1742 54.19 22.1742C57.3521 22.1742 59.3167 19.7907 59.3167 16.7298C59.3167 15.1054 58.8288 13.8019 57.8695 12.7961ZM23.5929 12.7961C22.6326 11.7904 21.413 11.2854 19.9137 11.2854C16.7073 11.2854 14.787 13.6261 14.787 16.7298C14.787 19.7892 16.752 22.1742 19.9137 22.1742C23.0755 22.1742 25.0405 19.7907 25.0405 16.7298C25.0405 15.1054 24.5533 13.8019 23.5937 12.7961H23.5929Z" fill="#8A8A8A"/>
</svg>
