<svg width="24" height="25" viewBox="0 0 24 25" fill="none" xmlns="http://www.w3.org/2000/svg">
<path d="M0.648438 12.5001C0.648438 14.7844 1.32583 17.0175 2.59496 18.9169C3.86409 20.8163 5.66796 22.2967 7.77844 23.1709C9.88893 24.0451 12.2112 24.2738 14.4517 23.8281C16.6922 23.3825 18.7502 22.2825 20.3655 20.6672C21.9808 19.0519 23.0808 16.9938 23.5265 14.7534C23.9722 12.5129 23.7434 10.1906 22.8692 8.08008C21.9951 5.96959 20.5147 4.16573 18.6153 2.8966C16.7159 1.62747 14.4828 0.950073 12.1984 0.950073C9.13519 0.950073 6.1974 2.16694 4.03135 4.33299C1.86531 6.49903 0.648438 9.43682 0.648438 12.5001ZM5.59844 11.6751H15.6222L11.0187 7.04897L12.1984 5.90007L18.7984 12.5001L12.1984 19.1001L11.0187 17.9226L15.6222 13.3251H5.59844V11.6751Z" fill="white"/>
</svg>
